<svg xmlns="http://www.w3.org/2000/svg" width="19" height="21" viewBox="0 0 19 21">
  <defs>
    <style>
      .cls-1 {
        fill: #3e93fe;
        fill-rule: evenodd;
      }
    </style>
  </defs>
  <path id="icon" class="cls-1" d="M1267.34,35.566h-0.84a1.249,1.249,0,1,1,0-2.5h0.84a1.316,1.316,0,0,1,.77.248,4.816,4.816,0,0,0,1.53-.451V30.776a1.619,1.619,0,0,1,.56-1.217,4.765,4.765,0,0,0-9.4,0,1.61,1.61,0,0,1,.55,1.217V32.8a1.6,1.6,0,0,1-.24.835,7.7,7.7,0,0,0,1.79,2.711,4.586,4.586,0,0,0,1.48.961,3.147,3.147,0,0,0,1.14.216,3.116,3.116,0,0,0,1.13-.216,4.614,4.614,0,0,0,1.53-1,7.187,7.187,0,0,0,1.03-1.277,7.628,7.628,0,0,1-.96.178A1.315,1.315,0,0,1,1267.34,35.566Zm-11.14,7.386c0.83,1.51,5.34,2.048,9.29,2.048h0.02c3.95,0,8.46-.538,9.29-2.048a1.87,1.87,0,0,0,.16-0.468,1.828,1.828,0,0,0-.03-0.869,7.028,7.028,0,0,0-1.2-2.427,3.283,3.283,0,0,0-2.11-1.293c-0.05-.008-0.09-0.015-0.12-0.023s-0.08-.014-0.12-0.021l0.03,0.054a1.949,1.949,0,0,1,.21.647,1.2,1.2,0,0,1,.7,1.721,1.258,1.258,0,0,1-1.11.643h0a1.258,1.258,0,0,1-.59-0.144,1.228,1.228,0,0,1-.62-0.719,1.2,1.2,0,0,1,.1-0.926,1.261,1.261,0,0,1,.75-0.586,1.721,1.721,0,0,0-.46-0.8l-0.23-.014a7.582,7.582,0,0,1-.94-0.089c-0.31.794-3.72,3.124-3.72,3.124s-3.42-2.33-3.73-3.124a7.571,7.571,0,0,1-.94.089l-0.19.011a1.746,1.746,0,0,0-.54.781,0.649,0.649,0,0,1,.24.284,2.759,2.759,0,0,1,1.25,1.348,0.478,0.478,0,0,1,.02.352,4.266,4.266,0,0,1,.31,1.471c0,0.628,0,1.222-.71,1.375a0.461,0.461,0,0,1-.28.1h-0.47a0.431,0.431,0,0,1-.44-0.416l0.01-.03a0.42,0.42,0,0,1,.43-0.386h0.47a0.4,0.4,0,0,1,.14.023,0.156,0.156,0,0,0,.04-0.014,2.457,2.457,0,0,0,.05-0.647,3.292,3.292,0,0,0-.26-1.213,0.476,0.476,0,0,1-.19-0.2,1.477,1.477,0,0,0-1-.956,1.511,1.511,0,0,0-1.02,1.009,0.478,0.478,0,0,1-.24.226,3.527,3.527,0,0,0-.23,1.138,2.178,2.178,0,0,0,.06.648l0.05,0.017a0.5,0.5,0,0,1,.16-0.027h0.48a0.421,0.421,0,0,1,.42.367l0.01,0v0.027a0.432,0.432,0,0,1-.43.433h-0.48a0.435,0.435,0,0,1-.26-0.086,0.857,0.857,0,0,1-.59-0.352,1.96,1.96,0,0,1-.17-1.032,4.119,4.119,0,0,1,.3-1.444,0.424,0.424,0,0,1,.03-0.312,3.5,3.5,0,0,1,.74-1.05,1.881,1.881,0,0,1,.5-0.345,0.734,0.734,0,0,1,.3-0.342,1.987,1.987,0,0,1,.24-0.623,0.766,0.766,0,0,0-.08.016c-0.04.006-.08,0.014-0.12,0.023a3.279,3.279,0,0,0-1.98,1.12,6.8,6.8,0,0,0-1.33,2.6,1.662,1.662,0,0,0-.02.937A1.476,1.476,0,0,0,1256.2,42.952Zm15.01-3.908a0.658,0.658,0,1,1-.68.657A0.666,0.666,0,0,1,1271.21,39.044Zm-0.42-5.386a1.092,1.092,0,0,0,.57.162h0.05a1.033,1.033,0,0,0,1.05-1.016V30.776a1,1,0,0,0-.6-0.914,6.387,6.387,0,0,0-12.73,0,1,1,0,0,0-.6.914V32.8a1.033,1.033,0,0,0,1.05,1.016h0.05a1.042,1.042,0,0,0,1.06-1.016V30.776a1.009,1.009,0,0,0-.59-0.908,5.417,5.417,0,0,1,10.79,0,1.017,1.017,0,0,0-.58.908V32.8a0.948,0.948,0,0,0,.07.377,5.251,5.251,0,0,1-2.51.808,0.639,0.639,0,0,0-.53-0.278h-0.84a0.609,0.609,0,1,0,0,1.216h0.84a0.645,0.645,0,0,0,.56-0.329A5.792,5.792,0,0,0,1270.79,33.657Z" transform="translate(-1256 -24)"/>
</svg>
